<svg width="1435" height="452" viewBox="0 0 1435 452" fill="none" xmlns="http://www.w3.org/2000/svg">
<rect width="1435" height="452" fill="black"/>
<path d="M185.677 246H123.677V260H185.677L205.677 273.5V260L185.677 246Z" fill="white"/>
<path d="M338.677 246H400.677V260H338.677L318.677 273.5V260L338.677 246Z" fill="white"/>
<path d="M338.677 271H400.677V285H338.677L318.677 298.5V285L338.677 271Z" fill="white"/>
<path d="M185.677 274H123.677V288H185.677L205.677 301.5V288L185.677 274Z" fill="white"/>
<path d="M185.677 299H123.677V313H205.677L185.677 299Z" fill="white"/>
<path d="M338.677 299H400.677V313H318.677L338.677 299Z" fill="white"/>
<path d="M185.677 165H123.677V179H185.677L205.677 192.5V179L185.677 165Z" fill="white"/>
<path d="M185.677 139H123.677V153H185.677L205.677 166.5V153L185.677 139Z" fill="white"/>
<path d="M338.677 139H400.677V153H338.677L318.677 166.5V153L338.677 139Z" fill="white"/>
<path d="M242.177 153H205.677V166.5H242.177L262.177 180.5V167L242.177 153Z" fill="white"/>
<path d="M282.177 153H318.677V166.5H282.177L262.177 180.5V167L282.177 153Z" fill="white"/>
<path d="M338.677 165H400.677V179H338.677L318.677 192.5V179L338.677 165Z" fill="white"/>
<path d="M242.177 179H205.677V192.5H242.177L262.177 206.5V193L242.177 179Z" fill="white"/>
<path d="M282.177 179H318.677V192.5H282.177L262.177 206.5V193L282.177 179Z" fill="white"/>
<path d="M185.677 218H123.677V232H185.677L205.677 245.5V232L185.677 218Z" fill="white"/>
<path d="M185.677 192H123.677V206H185.677L205.677 219.5V206L185.677 192Z" fill="white"/>
<path d="M338.677 192H400.677V206H338.677L318.677 219.5V206L338.677 192Z" fill="white"/>
<path d="M242.177 206H205.677V219.5H242.177L262.177 233.5V220L242.177 206Z" fill="white"/>
<path d="M282.177 206H318.677V219.5H282.177L262.177 233.5V220L282.177 206Z" fill="white"/>
<path d="M338.677 218H400.677V232H338.677L318.677 245.5V232L338.677 218Z" fill="white"/>
<path d="M242.177 232H205.677V245.5H242.177L262.177 259.5V246L242.177 232Z" fill="white"/>
<path d="M282.177 232H318.677V245.5H282.177L262.177 259.5V246L282.177 232Z" fill="white"/>
<path d="M1258.2 303H1158.1V239.42L1146.22 226L1158.1 212.58V149H1258.2C1269.79 149 1279.69 153.107 1287.9 161.32C1296.12 169.533 1300.22 179.507 1300.22 191.24V212.58L1312.32 226L1300.22 239.42V260.76C1300.22 272.493 1296.12 282.467 1287.9 290.68C1279.69 298.893 1269.79 303 1258.2 303ZM1258.2 270.44C1260.84 270.44 1263.04 269.56 1264.8 267.8C1266.71 265.893 1267.74 263.547 1267.88 260.76V191.24C1267.74 188.453 1266.71 186.18 1264.8 184.42C1263.04 182.513 1260.84 181.56 1258.2 181.56H1190.66V270.44H1258.2Z" fill="white"/>
<path d="M1141.09 303H1105.67L1089.39 265.82H1012.17L995.89 303H960.47L989.07 237.88L982.91 226L1000.07 212.8L1028.01 149H1073.55L1101.71 213.02L1118.21 226L1112.27 237.66L1141.09 303ZM1075.09 233.48L1052.43 181.56H1049.13L1026.47 233.48H1075.09Z" fill="white"/>
<path d="M956.071 303H911.411L866.091 255.26H836.171V303H803.611V239.42L791.731 226L803.611 212.58V149H900.411C912.145 149 922.118 153.107 930.331 161.32C938.545 169.533 942.651 179.507 942.651 191.24V213.02C942.651 222.993 939.571 231.793 933.411 239.42C927.251 246.9 919.405 251.813 909.871 254.16L956.071 303ZM900.411 222.7C903.198 222.7 905.471 221.82 907.231 220.06C909.138 218.153 910.091 215.807 910.091 213.02V191.24C910.091 188.453 909.138 186.18 907.231 184.42C905.471 182.513 903.198 181.56 900.411 181.56H836.171V222.7H900.411Z" fill="white"/>
<path d="M722.507 303H689.947V252.4L680.267 236.56L662.007 226.44L667.067 215.44L625.707 149H663.987L706.227 216.98L748.687 149H786.747L745.387 215.66L750.447 226.44L732.407 236.34L722.507 252.4V303Z" fill="white"/>
<path d="M608.757 303H576.197V209.06L530.657 279.68L485.117 208.62V303H452.557V239.42L440.677 226L452.557 212.58V149H485.337L530.657 219.62L576.417 149H608.757V212.58L620.637 226L608.757 239.42V303Z" fill="white"/>
</svg>
